<?xml version="1.0" encoding="utf-8"?>
<!-- Uploaded to: SVG Repo, www.svgrepo.com, Generator: SVG Repo Mixer Tools -->
<svg width="800px" height="800px" viewBox="-4.88 0 290.738 290.738" xmlns="http://www.w3.org/2000/svg"><defs><style>.a{fill:#ffffff;}.b{fill:#211715;}.c{fill:#7a7473;}</style></defs><path class="a" d="M103.8,192.71c-2.793,1-9.671,5.223-9.671,8.96,0,2.89,17.278,8.28,29.149,11.815,2.941.876,4.96,3.217,6.372,5.942a192.517,192.517,0,0,0,10.2,17.408c3.512-5.87,7.464-13.441,9.126-18.672a6.038,6.038,0,0,1,4.891-4.021c4.792-.746,8.814-1.824,14.509-2.978,7.04-1.428,18.2-5.654,18.011-10.728-1.09-4.028-7.68-6.3-10.9-7.584Z"/><path class="a" d="M209.8,106.753a10.354,10.354,0,0,1,8.286-2.424,9.777,9.777,0,0,1,7.03,4.674,13.83,13.83,0,0,1,1.448,5.561,41.438,41.438,0,0,1-4.225,21.96,26.328,26.328,0,0,1-6.808,8.936,17.448,17.448,0,0,1-8.119,3.659l-1.389.215c-.666,2.493-1.415,4.594-1.782,5.709-2.264,6.146-14.5,26.775-30.153,35.621.244,2.846.63,5.7,1.123,8.508.806,4.63.561,8.752,6.962,11.067.316.1,10.137,4.77,15.627,7.366,0,0-2.05,35.223-54.791,35.223s-58.883-36.539-58.883-36.539c6.015-2.753,12.89-5.963,13.136-6.05,6.419-2.315,6.156-6.437,6.98-11.067.552-3.189.96-6.088,1.2-9.283a63.955,63.955,0,0,1-16.157-14.154,70.47,70.47,0,0,1-13.427-26.209l-2.646-.407a17.445,17.445,0,0,1-8.118-3.659,26.331,26.331,0,0,1-6.809-8.936,41.428,41.428,0,0,1-4.224-21.96A13.813,13.813,0,0,1,55.507,109a9.777,9.777,0,0,1,7.031-4.674,10.352,10.352,0,0,1,8.285,2.424S52.932,43.643,143.6,43.643C228.932,43.643,209.8,106.753,209.8,106.753Z"/><path class="b" d="M85.536,218.707q5.4-2.474,10.789-4.977a19.24,19.24,0,0,0,2.278-1.045q-1.1.45-.207.107.525-.21,1.044-.434a14.293,14.293,0,0,0,1.341-.652,12.789,12.789,0,0,0,2.14-1.542c2.249-1.983,3.164-4.839,3.618-7.7.653-4.132,1.354-8.251,1.693-12.424a2.823,2.823,0,0,0-2.8-2.8,2.855,2.855,0,0,0-2.8,2.8c-.3,3.676-.918,7.3-1.493,10.935a17.315,17.315,0,0,1-.8,3.379c.195-.522-.207.409-.263.509a6.478,6.478,0,0,1-.427.669c.282-.381-.294.3-.372.378s-.658.565-.478.432c-1.669,1.236-3.954,1.933-5.842,2.806q-5.124,2.37-10.252,4.729a2.822,2.822,0,0,0-1,3.831,2.866,2.866,0,0,0,3.831,1Z"/><path class="b" d="M171.285,190.683c.34,3.816.981,7.578,1.553,11.361a14.024,14.024,0,0,0,2.882,7.3,11.11,11.11,0,0,0,3.571,2.692c.507.248,1.032.465,1.556.675.139.055,1.041.428.3.106-.663-.29.12.064.292.144,2.03.938,4.048,1.9,6.069,2.857q4.435,2.1,8.871,4.2a2.879,2.879,0,0,0,3.831-1,2.825,2.825,0,0,0-1-3.831c-5.183-2.451-10.322-5.039-15.572-7.344a10.422,10.422,0,0,1-3.777-2.244q-.322-.385-.076-.072c-.1-.144-.2-.291-.294-.442a7.186,7.186,0,0,1-.482-.925c.223.521-.131-.455-.16-.554-.1-.338-.184-.681-.258-1.026a97.4,97.4,0,0,1-1.706-11.9,2.875,2.875,0,0,0-2.8-2.8,2.821,2.821,0,0,0-2.8,2.8Z"/><path class="c" d="M2.819,287.937C6.728,276.209,15.048,255,27.707,244.024c7.043-6.108,13.476-9.6,22.754-13.767,9.716-4.365,28.035-12.708,37.547-16.8,2.572-3.838,4.314-8.323,6.116-12.47v.686c0,2.89,17.278,8.28,29.149,11.815,2.941.876,4.96,3.217,6.372,5.942a192.517,192.517,0,0,0,10.2,17.408c3.512-5.87,7.464-13.441,9.126-18.672a6.038,6.038,0,0,1,4.891-4.021c4.792-.746,8.814-1.824,14.509-2.978,7.04-1.428,18.2-5.654,18.011-10.728l-.053-1.4.2.655c1.265,4.133,3.477,10.383,5.851,13.513,9.324,3.993,28.218,12.6,38.14,17.057,9.278,4.168,15.711,7.659,22.754,13.767C265.93,255,274.25,276.209,278.159,287.937Z"/><path class="c" d="M116.759,5.789c-14.2,3.716-27.152,10.789-37.012,20.817a75.926,75.926,0,0,0-20.9,66.081,69.1,69.1,0,0,0,3.306,11.71c.129-.027.258-.049.389-.068a10.424,10.424,0,0,1,7.655,1.911c4.782-.311,5.812-7.5,10.155-9.637,2.014-.991,4.4-.712,6.647-.6,18.606.908,34.96-11.171,49.478-22.629-.6,2.906,1.887,5.762,4.788,6.591s6.019.112,8.873-.862c6.29-2.146,12.608-7.323,17.7-12.293a62.176,62.176,0,0,1,14.446,2.881c11.751,3.856,24.274,16.021,25.432,37.247l2.087-.183a10.354,10.354,0,0,1,8.286-2.424,9.975,9.975,0,0,1,1.583.37c5.074-17.545,3.827-45.7-7.771-63.871C197.571,17.115,168.392,2.3,140.278,2.77A93.494,93.494,0,0,0,116.759,5.789Z"/><path class="b" d="M204.5,141.41a35.206,35.206,0,0,1-1.717,9.053c-.33,1.093-.692,2.176-1.055,3.259-.09.267-.177.534-.276.8-.045.118-.1.233-.14.352-.16.472.309-.682.039-.093a73.912,73.912,0,0,1-4.7,8.566C191.649,171.289,185.7,178.7,178.15,184.6a35.263,35.263,0,0,1-13.628,6.863c-3.512.8-2.026,6.2,1.489,5.4,10.317-2.354,18.955-9.826,25.75-17.6a89.213,89.213,0,0,0,14.212-21.165,44.694,44.694,0,0,0,4.13-16.678c.11-3.6-5.49-3.6-5.6,0Z"/><path class="b" d="M70.928,140.331A83.234,83.234,0,0,0,81.29,169.323c6.009,9.932,14.78,18.907,25.123,24.315a47.894,47.894,0,0,0,17.422,5.236,2.819,2.819,0,0,0,2.8-2.8,2.863,2.863,0,0,0-2.8-2.8c-9.847-1.008-18.861-5.981-26.07-12.65a66.627,66.627,0,0,1-17.751-27.2,92.732,92.732,0,0,1-3.686-14.579,2.824,2.824,0,0,0-3.445-1.956,2.863,2.863,0,0,0-1.955,3.444Z"/><path class="b" d="M181.534,72.389c.562.187,1.12.386,1.671.6.138.054.708.293.288.112.321.138.64.283.956.432a33.452,33.452,0,0,1,3.321,1.8,29.588,29.588,0,0,1,5.862,4.634,37.1,37.1,0,0,1,9.1,15.03,47.938,47.938,0,0,1,2.179,11.936,2.863,2.863,0,0,0,2.8,2.8,2.826,2.826,0,0,0,2.8-2.8c-.825-14.143-6.9-27.854-18.978-35.838a36.094,36.094,0,0,0-8.51-4.109,2.8,2.8,0,1,0-1.488,5.4Z"/><path class="b" d="M168.7,61.95c-4.606,4.8-9.57,9.476-15.439,12.7a20.283,20.283,0,0,1-9.117,2.876,5.61,5.61,0,0,1-3.609-1.012,3.247,3.247,0,0,1-1.36-2.395,2.827,2.827,0,0,0-4.68-2.724c-8.463,6.676-17.2,13.291-27.11,17.687a47.122,47.122,0,0,1-14.629,4,70.711,70.711,0,0,1-8.106.011A10.862,10.862,0,0,0,77,95.536a25.54,25.54,0,0,0-4.1,5.337,10.416,10.416,0,0,1-1.526,1.9c-.089.094-.529.443-.116.136a5.16,5.16,0,0,1-.636.4,1.161,1.161,0,0,1-.565.144,2.866,2.866,0,0,0-2.8,2.8,2.825,2.825,0,0,0,2.8,2.8c4.793-.31,6.817-4.273,9.3-7.771a9.439,9.439,0,0,1,1.609-1.78c-.34.283.108-.078.2-.136a4.762,4.762,0,0,1,.6-.339,4.863,4.863,0,0,1,1.611-.321c2.786-.15,5.568.243,8.364.056,11.367-.762,21.857-5.773,31.241-11.96,5.359-3.534,10.439-7.471,15.476-11.444l-4.68-2.725c-.724,4.414,1.97,8.234,6.057,9.8,4.26,1.631,9.193.239,13.2-1.469C160.639,77.717,167,71.8,172.658,65.91c2.5-2.6-1.459-6.566-3.96-3.96Z"/><path class="b" d="M5.519,288.681A160.553,160.553,0,0,1,13.1,269.736c3.4-7.056,7.377-14.037,12.659-19.866,5.489-6.057,12.457-10.563,19.727-14.19,6.932-3.459,14.1-6.486,21.161-9.671,7.668-3.459,15.33-6.937,23.059-10.259,1.389-.6,1.7-2.64,1-3.831a2.874,2.874,0,0,0-3.831-1.005c-6.924,2.976-13.791,6.083-20.662,9.179-7.115,3.206-14.29,6.311-21.335,9.668-7.759,3.7-15.29,8.262-21.4,14.38-5.825,5.831-10.284,13-14,20.31A166.661,166.661,0,0,0,.119,287.193a2.831,2.831,0,0,0,1.956,3.444,2.851,2.851,0,0,0,3.444-1.956Z"/><path class="b" d="M103.05,190.01a24.029,24.029,0,0,0-5.909,3.241,15.346,15.346,0,0,0-5.1,5.5c-.947,2.036-1.021,4.168.6,5.845a14.369,14.369,0,0,0,4.184,2.682,116.769,116.769,0,0,0,14.417,5.423c2.622.851,5.255,1.667,7.893,2.467,2.5.755,4.787,1.181,6.517,3.221a21.618,21.618,0,0,1,2.369,3.978q1.262,2.381,2.587,4.725c1.869,3.311,3.82,6.578,5.891,9.768,1.955,3.012,6.805.208,4.835-2.827-3.437-5.294-6.423-10.815-9.451-16.345a14.647,14.647,0,0,0-5.548-5.929c-2.273-1.246-5.008-1.773-7.474-2.528-5.031-1.542-10.059-3.132-14.976-5.009a42.917,42.917,0,0,1-5.113-2.215c-.615-.318-1.2-.667-1.787-1.04-.648-.414.269.352-.19-.145a2.043,2.043,0,0,0-.28-.278c-.352-.236.387.568.173.211s.242.669.157.372q-.088-.346.072.542.027-.486-.026.053c0,.011.214-.73.081-.362-.093.254.268-.5.328-.595a11.122,11.122,0,0,1,2.209-2.317,20.876,20.876,0,0,1,2.811-1.916c.442-.258.892-.5,1.35-.733.185-.093.376-.176.56-.27.488-.251-.42.147.3-.12a2.876,2.876,0,0,0,1.956-3.444,2.823,2.823,0,0,0-3.445-1.956Z"/><path class="b" d="M174.73,195.552a43.322,43.322,0,0,1,5.161,2.249,14.022,14.022,0,0,1,2.416,1.561c.182.164.364.328.536.5-.055-.056.558.641.34.36s.284.449.253.4a5.154,5.154,0,0,1,.25.477l-.085-.174a.809.809,0,0,1,.011-.419,2.662,2.662,0,0,0-.1.4l-.068.2q.224-.508.013-.079c-.107.15-.2.327-.3.484-.237.377.44-.477-.072.1-.141.158-.284.313-.433.463s-.317.308-.482.454c-.029.026-.646.534-.3.269a24.515,24.515,0,0,1-5.644,3.083c-4.888,1.981-10.068,2.875-15.193,4.008-2.794.617-5.666.993-8.442,1.663a8.917,8.917,0,0,0-6.262,5.7,102.4,102.4,0,0,1-8.256,17.069c-1.825,3.116,3.014,5.938,4.836,2.826a102.689,102.689,0,0,0,8.33-16.969,4.863,4.863,0,0,1,1.439-2.613,7.58,7.58,0,0,1,3.344-.954c3.017-.524,6-1.218,8.989-1.874,5.477-1.2,10.81-2.377,15.89-4.851a20.558,20.558,0,0,0,5.806-3.944c1.521-1.57,2.929-3.971,2.374-6.249-1.339-5.494-8.263-7.717-12.859-9.539a2.819,2.819,0,0,0-3.444,1.956,2.865,2.865,0,0,0,1.955,3.444Z"/><path class="b" d="M137.322,238.079c-.076,15.458.734,30.9.74,46.364,0,3.6,5.6,3.61,5.6,0-.006-15.459-.816-30.906-.74-46.364.018-3.6-5.582-3.609-5.6,0Z"/><path class="b" d="M118.624,259.694a22.939,22.939,0,0,0,5.42.939c1.5.122,3,.156,4.5.157a2.8,2.8,0,1,0,0-5.6,46.77,46.77,0,0,1-6.193-.339l.745.1a16.512,16.512,0,0,1-2.981-.657,2.821,2.821,0,0,0-3.444,1.956,2.865,2.865,0,0,0,1.956,3.444Z"/><path class="b" d="M118.624,277.4a23.041,23.041,0,0,0,5.42.939c1.5.122,3,.156,4.5.157a2.8,2.8,0,1,0,0-5.6,46.6,46.6,0,0,1-6.193-.34l.745.1a16.6,16.6,0,0,1-2.981-.656,2.82,2.82,0,0,0-3.444,1.956,2.866,2.866,0,0,0,1.956,3.444Z"/><path class="b" d="M91.919,199.083c-1.971,4.5-3.732,9.138-6.507,13.227a2.818,2.818,0,0,0,1,3.831,2.869,2.869,0,0,0,3.831-1c2.774-4.088,4.535-8.725,6.507-13.226a2.876,2.876,0,0,0-1-3.831c-1.212-.641-3.2-.428-3.831,1Z"/><path class="b" d="M183.826,200.431c.761,2.477,1.6,4.933,2.59,7.33a30.273,30.273,0,0,0,3.634,6.984,3.08,3.08,0,0,0,1.674,1.287,2.861,2.861,0,0,0,2.157-.282c1.145-.739,1.957-2.587,1-3.831a19.1,19.1,0,0,1-1.741-2.808q-.425-.813-.805-1.649-.2-.432-.388-.869c-.006-.015-.271-.643-.111-.257s-.1-.25-.107-.263c-.951-2.334-1.769-4.722-2.509-7.131a2.8,2.8,0,0,0-5.4,1.489Z"/><path class="b" d="M280.859,287.193c-4.831-14.461-11.1-29.368-21.328-40.889C248.482,233.859,232.282,228,217.5,221.327c-7.781-3.511-15.556-7.042-23.4-10.413a2.9,2.9,0,0,0-3.831,1.005c-.69,1.18-.393,3.23,1,3.831,13.761,5.914,27.478,12.035,41.039,18.394,7.534,3.533,14.871,7.736,20.858,13.593,5.6,5.477,9.778,12.28,13.326,19.212a154.955,154.955,0,0,1,8.964,21.732,2.864,2.864,0,0,0,3.444,1.956,2.828,2.828,0,0,0,1.956-3.444Z"/><path class="b" d="M31.713,240.1c1.826,12.5,4.235,24.908,6.222,37.381.582,3.657,1.141,7.319,1.638,10.989.2,1.5,2.126,2.318,3.444,1.955a2.875,2.875,0,0,0,1.956-3.444c-1.812-13.395-4.286-26.695-6.523-40.023-.467-2.779-.93-5.559-1.337-8.347-.219-1.5-2.116-2.321-3.445-1.956a2.873,2.873,0,0,0-1.955,3.445Z"/><path class="b" d="M240.143,288.466c1.8-13.4,4.282-26.7,6.521-40.024.467-2.778.931-5.558,1.339-8.346a2.894,2.894,0,0,0-1.956-3.445c-1.317-.361-3.224.45-3.444,1.956-1.827,12.5-4.242,24.908-6.226,37.381-.582,3.657-1.14,7.319-1.634,10.989a2.9,2.9,0,0,0,1.955,3.444c1.3.359,3.242-.447,3.445-1.955Z"/><path class="b" d="M157.7,234.393a76.447,76.447,0,0,0,27.88-8.082c3.208-1.644.378-6.478-2.826-4.836a69.147,69.147,0,0,1-25.054,7.318,2.875,2.875,0,0,0-2.8,2.8,2.821,2.821,0,0,0,2.8,2.8Z"/><path class="b" d="M121.876,228.793a69.147,69.147,0,0,1-25.054-7.318c-3.2-1.64-6.038,3.19-2.827,4.836a76.457,76.457,0,0,0,27.881,8.082,2.822,2.822,0,0,0,2.8-2.8,2.86,2.86,0,0,0-2.8-2.8Z"/><path class="b" d="M211.777,108.733a7.494,7.494,0,0,1,8.545-.688c3.119,1.835,3.464,5.39,3.569,8.726.251,8.035-1.981,16.667-6.873,23.146a16.294,16.294,0,0,1-10.353,6.5,2.822,2.822,0,0,0-1.955,3.445,2.865,2.865,0,0,0,3.444,1.955c10.329-1.731,16.49-11.483,19.376-20.762a43.607,43.607,0,0,0,1.923-15.169c-.272-5.095-1.651-9.939-6.305-12.678a13.249,13.249,0,0,0-15.331,1.563,2.825,2.825,0,0,0,0,3.96,2.856,2.856,0,0,0,3.96,0Z"/><path class="b" d="M72.8,104.773a13.2,13.2,0,0,0-13.513-2.43,12.751,12.751,0,0,0-5.63,4.363,14.623,14.623,0,0,0-2.315,7.041c-1.144,9.843,1.5,20.986,7.422,29,3.363,4.544,8.013,8.122,13.7,9.075a2.884,2.884,0,0,0,3.444-1.955,2.824,2.824,0,0,0-1.956-3.445c-7.945-1.332-12.58-8.467-15.047-15.581a38.924,38.924,0,0,1-2.2-12.3c-.04-3.337-.092-7.571,2.677-9.873a7.5,7.5,0,0,1,9.453.066,2.871,2.871,0,0,0,3.96,0,2.825,2.825,0,0,0,0-3.96Z"/><path class="b" d="M222.892,103.5a89.169,89.169,0,0,0,2.242-26.626A86.438,86.438,0,0,0,219.1,48.785C211.835,31.293,197.349,17.457,180.48,9.2A92.877,92.877,0,0,0,123.2,1.516c-19.5,3.465-37.989,13.266-50.5,28.807A79.2,79.2,0,0,0,55.16,85.257c.192,2.738.537,5.466.983,8.174a2.821,2.821,0,0,0,3.444,1.956,2.868,2.868,0,0,0,1.956-3.445,73.617,73.617,0,0,1,11.933-53.35C83.92,23.3,99.934,13.035,117.743,8.427a87.969,87.969,0,0,1,54.528,3.209c16.258,6.491,30.6,18.239,39.029,33.7a71.225,71.225,0,0,1,7.644,25.087,91.852,91.852,0,0,1-.276,25.882q-.472,2.878-1.176,5.71c-.873,3.5,4.527,4.989,5.4,1.489Z"/><path class="b" d="M128.4,162.805a27.056,27.056,0,0,0,13.035,3c4.6-.03,9.325-.905,13.019-3.783,1.194-.93.977-2.984,0-3.96a2.87,2.87,0,0,0-3.959,0c.806-.628.034-.046-.172.086q-.4.258-.827.479c-.164.086-1.081.493-.465.243q-.562.23-1.141.415a21,21,0,0,1-6.885.92,21.948,21.948,0,0,1-6.573-.885c-.418-.125-.826-.274-1.237-.416-.135-.047-.266-.106-.4-.155.68.253.074.033-.053-.027-.512-.24-1.016-.492-1.516-.756a2.861,2.861,0,0,0-3.831,1,2.831,2.831,0,0,0,1,3.831Z"/><path class="b" d="M140.318,131.7a62.757,62.757,0,0,1,1.477,6.758l-.1-.744a4.045,4.045,0,0,1,.025.933l.1-.745a2.238,2.238,0,0,1-.1.42l.282-.669a1.647,1.647,0,0,1-.148.27l.438-.567a1.469,1.469,0,0,1-.221.218l.567-.438a4.339,4.339,0,0,1-.535.283l.668-.282a3.874,3.874,0,0,1-.9.263l.745-.1a3.582,3.582,0,0,1-.847,0l.744.1c-.319-.045-.632-.123-.952-.166a3.093,3.093,0,0,0-2.157.283,2.8,2.8,0,0,0-1,3.831,2.681,2.681,0,0,0,1.673,1.286c.668.09,1.316.262,1.995.292a6.263,6.263,0,0,0,2.864-.67,3.99,3.99,0,0,0,2.254-2.647,6.907,6.907,0,0,0-.032-2.926c-.368-2.177-.871-4.335-1.431-6.47a2.8,2.8,0,1,0-5.4,1.488Z"/><path class="b" d="M103.944,112.739c-1.128,3.668-.393,12.1,6.555,12.822,9.183-.055,9.672-10.255,6.581-15.051C114.549,106.584,107.106,104.951,103.944,112.739Z"/><path class="b" d="M177.481,112.739c1.129,3.668.394,12.1-6.554,12.822-9.183-.055-9.672-10.255-6.581-15.051C166.877,106.584,174.319,104.951,177.481,112.739Z"/></svg>