<?xml version="1.0" ?><svg height="64" id="svg3162" version="1.1" viewBox="0 0 16.933333 16.933334" width="64" xmlns="http://www.w3.org/2000/svg" xmlns:cc="http://creativecommons.org/ns#" xmlns:dc="http://purl.org/dc/elements/1.1/" xmlns:inkscape="http://www.inkscape.org/namespaces/inkscape" xmlns:rdf="http://www.w3.org/1999/02/22-rdf-syntax-ns#" xmlns:sodipodi="http://sodipodi.sourceforge.net/DTD/sodipodi-0.dtd" xmlns:svg="http://www.w3.org/2000/svg"><defs id="defs3156"/><g id="layer1" transform="translate(0,-280.06665)"><path d="m 7.48908,289.77043 c -0.31996,0.10666 -0.60417,0.23307 -0.79882,0.42773 -0.0335,0.0341 -0.0571,0.0766 -0.0684,0.12305 l -1.0586,4.23242 c -0.007,0.0274 -0.007,0.0651 -0.007,0.0651 10e-6,0.14552 0.11907,0.26459 0.26459,0.26458 0.0265,0 0.14601,-10e-6 0.2252,-0.1285 l 1.09771,-1.82617 c -7.4e-4,0.82795 -0.001,1.65589 -1e-5,2.48384 5.2e-4,0.14617 0.11842,0.26514 0.26459,0.26458 H 9.525 c 0.14541,-5.1e-4 0.26407,-0.11917 0.26459,-0.26458 -0.001,-0.82795 10e-6,-1.65589 10e-6,-2.48384 l 1.0947,1.82617 c 0.0742,0.1285 0.20171,0.1285 0.22821,0.1285 0.14553,0 0.26459,-0.11906 0.26459,-0.26458 0,0 0,-0.0336 -0.008,-0.0651 l -1.05859,-4.23242 c -0.0118,-0.0466 -0.0361,-0.0892 -0.0703,-0.12305 -0.19465,-0.19466 -0.4769,-0.32107 -0.79687,-0.42773 -0.31997,-0.10666 -0.66738,-0.17879 -0.97623,-0.17879 -0.30885,0 -0.65727,0.0721 -0.97724,0.17879 z" id="path2850" style="color:#000000;font-style:normal;font-variant:normal;font-weight:normal;font-stretch:normal;font-size:medium;line-height:normal;font-family:sans-serif;font-variant-ligatures:normal;font-variant-position:normal;font-variant-caps:normal;font-variant-numeric:normal;font-variant-alternates:normal;font-feature-settings:normal;text-indent:0;text-align:start;text-decoration:none;text-decoration-line:none;text-decoration-style:solid;text-decoration-color:#000000;letter-spacing:normal;word-spacing:normal;text-transform:none;writing-mode:lr-tb;direction:ltr;text-orientation:mixed;dominant-baseline:auto;baseline-shift:baseline;text-anchor:start;white-space:normal;shape-padding:0;clip-rule:nonzero;display:inline;overflow:visible;visibility:visible;opacity:1;isolation:auto;mix-blend-mode:normal;color-interpolation:sRGB;color-interpolation-filters:linearRGB;solid-color:#000000;solid-opacity:1;vector-effect:none;fill:#000000;fill-opacity:1;fill-rule:nonzero;stroke:none;stroke-width:0.5291667;stroke-linecap:round;stroke-linejoin:round;stroke-miterlimit:4;stroke-dasharray:none;stroke-dashoffset:0;stroke-opacity:1;color-rendering:auto;image-rendering:auto;shape-rendering:auto;text-rendering:auto;enable-background:accumulate"/><path d="m 9.78958,285.62289 c -0.21527,0 -0.26473,0.26459 -0.57309,0.26459 H 8.20208 c -0.11024,0 -0.22712,0.0329 -0.31574,0.1018 -0.0886,0.0689 -0.13819,0.16083 -0.16588,0.24391 -0.0401,0.12041 -0.0474,0.223 -0.0475,0.24495 -0.0568,0.0152 -0.20945,0.11665 -0.31368,0.26096 -0.1373,0.19018 -0.21549,0.444 -0.21549,0.73588 v 0.52916 c 0,0.35278 0.18448,0.63158 0.39688,0.8015 0.2124,0.16991 0.44097,0.25684 0.66145,0.25684 h 0.26459 0.26458 c 0.58137,0 1.05833,-0.47697 1.05833,-1.05834 0,-0.22009 -0.0733,-0.42115 -0.19068,-0.59014 0.41628,-0.14266 0.71985,-0.53453 0.71985,-0.99736 0,0 0.002,-0.14347 -0.0419,-0.30644 -0.0437,-0.16296 -0.14759,-0.40619 -0.41755,-0.47852 -0.0257,-0.007 -0.046,-0.009 -0.0698,-0.009 z m -1.05833,1.85209 c 0.2954,0 0.52916,0.23377 0.52916,0.52916 0,0.2954 -0.23376,0.52874 -0.52916,0.52917 H 8.20208 v -0.52917 c 0,-0.29224 0.23693,-0.52916 0.52917,-0.52916 z" id="path2856" style="color:#000000;font-style:normal;font-variant:normal;font-weight:normal;font-stretch:normal;font-size:medium;line-height:normal;font-family:sans-serif;font-variant-ligatures:normal;font-variant-position:normal;font-variant-caps:normal;font-variant-numeric:normal;font-variant-alternates:normal;font-feature-settings:normal;text-indent:0;text-align:start;text-decoration:none;text-decoration-line:none;text-decoration-style:solid;text-decoration-color:#000000;letter-spacing:normal;word-spacing:normal;text-transform:none;writing-mode:lr-tb;direction:ltr;text-orientation:mixed;dominant-baseline:auto;baseline-shift:baseline;text-anchor:start;white-space:normal;shape-padding:0;clip-rule:nonzero;display:inline;overflow:visible;visibility:visible;opacity:1;isolation:auto;mix-blend-mode:normal;color-interpolation:sRGB;color-interpolation-filters:linearRGB;solid-color:#000000;solid-opacity:1;vector-effect:none;fill:#000000;fill-opacity:1;fill-rule:nonzero;stroke:none;stroke-width:0.5291667;stroke-linecap:butt;stroke-linejoin:round;stroke-miterlimit:4;stroke-dasharray:none;stroke-dashoffset:0;stroke-opacity:1;paint-order:normal;color-rendering:auto;image-rendering:auto;shape-rendering:auto;text-rendering:auto;enable-background:accumulate"/><path d="m 3.175,286.94581 c -0.72749,0 -1.32292,0.59543 -1.32292,1.32292 0,0.37938 0.16406,0.72037 0.42219,0.96221 -0.13245,0.0522 -0.25886,0.1116 -0.37051,0.18603 -0.33884,0.22591 -0.58085,0.56877 -0.58085,0.96842 v 2.11667 c 5.3e-4,0.14541 0.11918,0.26406 0.26459,0.26458 h 3.175 c 0.14541,-5.3e-4 0.26407,-0.11917 0.26458,-0.26458 v -2.11667 c 0,-0.39966 -0.24355,-0.74251 -0.58239,-0.96842 -0.11144,-0.0743 -0.23753,-0.13391 -0.36949,-0.18603 0.25831,-0.24185 0.42271,-0.58269 0.42271,-0.96221 0,-0.72751 -0.59541,-1.32292 -1.32291,-1.32292 z m 0,0.52917 c 0.44151,-2e-5 0.79375,0.35224 0.79375,0.79375 0,0.44151 -0.35224,0.79375 -0.79375,0.79375 -0.4415,0 -0.79375,-0.35225 -0.79375,-0.79375 0,-0.44151 0.35225,-0.79375 0.79375,-0.79375 z" id="path2870" style="color:#000000;font-style:normal;font-variant:normal;font-weight:normal;font-stretch:normal;font-size:medium;line-height:normal;font-family:sans-serif;font-variant-ligatures:normal;font-variant-position:normal;font-variant-caps:normal;font-variant-numeric:normal;font-variant-alternates:normal;font-feature-settings:normal;text-indent:0;text-align:start;text-decoration:none;text-decoration-line:none;text-decoration-style:solid;text-decoration-color:#000000;letter-spacing:normal;word-spacing:normal;text-transform:none;writing-mode:lr-tb;direction:ltr;text-orientation:mixed;dominant-baseline:auto;baseline-shift:baseline;text-anchor:start;white-space:normal;shape-padding:0;clip-rule:nonzero;display:inline;overflow:visible;visibility:visible;opacity:1;isolation:auto;mix-blend-mode:normal;color-interpolation:sRGB;color-interpolation-filters:linearRGB;solid-color:#000000;solid-opacity:1;vector-effect:none;fill:#000000;fill-opacity:1;fill-rule:nonzero;stroke:none;stroke-width:0.5291667;stroke-linecap:butt;stroke-linejoin:round;stroke-miterlimit:4;stroke-dasharray:none;stroke-dashoffset:0;stroke-opacity:1;paint-order:normal;color-rendering:auto;image-rendering:auto;shape-rendering:auto;text-rendering:auto;enable-background:accumulate"/><path d="m 13.75834,286.94581 c -0.72749,0 -1.32292,0.59541 -1.32292,1.32292 0,0.3795 0.16468,0.72011 0.42323,0.9617 -0.1326,0.0522 -0.25922,0.11201 -0.37104,0.18654 -0.33885,0.22591 -0.58136,0.56876 -0.58136,0.96842 v 2.11667 c 5.3e-4,0.14617 0.11842,0.26514 0.26459,0.26458 h 3.175 c 0.14617,5.3e-4 0.26406,-0.11841 0.26458,-0.26458 v -2.11667 c 0,-0.39965 -0.24303,-0.74251 -0.58188,-0.96842 -0.11156,-0.0744 -0.2378,-0.13388 -0.37,-0.18603 0.25835,-0.24161 0.42271,-0.58243 0.42271,-0.96221 -1e-5,-0.72749 -0.59542,-1.32292 -1.32291,-1.32292 z m 0,0.52917 c 0.44151,0 0.79375,0.35224 0.79375,0.79375 0,0.4415 -0.35224,0.79375 -0.79375,0.79375 -0.44151,0 -0.79375,-0.35224 -0.79375,-0.79375 0,-0.44151 0.35224,-0.79377 0.79375,-0.79375 z" id="path2864" style="color:#000000;font-style:normal;font-variant:normal;font-weight:normal;font-stretch:normal;font-size:medium;line-height:normal;font-family:sans-serif;font-variant-ligatures:normal;font-variant-position:normal;font-variant-caps:normal;font-variant-numeric:normal;font-variant-alternates:normal;font-feature-settings:normal;text-indent:0;text-align:start;text-decoration:none;text-decoration-line:none;text-decoration-style:solid;text-decoration-color:#000000;letter-spacing:normal;word-spacing:normal;text-transform:none;writing-mode:lr-tb;direction:ltr;text-orientation:mixed;dominant-baseline:auto;baseline-shift:baseline;text-anchor:start;white-space:normal;shape-padding:0;clip-rule:nonzero;display:inline;overflow:visible;visibility:visible;opacity:1;isolation:auto;mix-blend-mode:normal;color-interpolation:sRGB;color-interpolation-filters:linearRGB;solid-color:#000000;solid-opacity:1;vector-effect:none;fill:#000000;fill-opacity:1;fill-rule:nonzero;stroke:none;stroke-width:0.5291667;stroke-linecap:butt;stroke-linejoin:round;stroke-miterlimit:4;stroke-dasharray:none;stroke-dashoffset:0;stroke-opacity:1;paint-order:normal;color-rendering:auto;image-rendering:auto;shape-rendering:auto;text-rendering:auto;enable-background:accumulate"/><path d="m 5.82085,295.41249 a 0.26458335,0.26458335 0 0 1 -0.26458,0.26458 0.26458335,0.26458335 0 0 1 -0.26459,-0.26458 0.26458335,0.26458335 0 0 1 0.26459,-0.26459 0.26458335,0.26458335 0 0 1 0.26458,0.26459 z" id="path1990" style="display:inline;opacity:1;fill:#000000;fill-opacity:1;stroke:none;stroke-width:0.52916676;stroke-linecap:butt;stroke-linejoin:round;stroke-miterlimit:4;stroke-dasharray:none;stroke-dashoffset:0;stroke-opacity:1;paint-order:normal"/><path d="m 11.64168,295.41249 a 0.26458335,0.26458335 0 0 1 -0.26458,0.26458 0.26458335,0.26458335 0 0 1 -0.26459,-0.26458 0.26458335,0.26458335 0 0 1 0.26459,-0.26459 0.26458335,0.26458335 0 0 1 0.26458,0.26459 z" id="path1992" style="display:inline;opacity:1;fill:#000000;fill-opacity:1;stroke:none;stroke-width:0.52916676;stroke-linecap:butt;stroke-linejoin:round;stroke-miterlimit:4;stroke-dasharray:none;stroke-dashoffset:0;stroke-opacity:1;paint-order:normal"/><path d="m 8.46667,281.38956 c -0.58137,0 -1.05833,0.47697 -1.05833,1.05833 0,0.25311 0.0938,0.48333 0.24391,0.66611 -0.16514,0.0571 -0.32096,0.12681 -0.4563,0.21704 -0.33884,0.22589 -0.58136,0.56928 -0.58136,0.96894 v 0.52916 c -5.7e-4,0.14694 0.11764,0.26516 0.26458,0.26459 h 3.175 c 0.14617,-5.2e-4 0.26515,-0.11842 0.26458,-0.26459 v -0.52916 c 0,-0.39966 -0.24303,-0.74305 -0.58187,-0.96894 -0.13535,-0.0902 -0.29134,-0.15996 -0.45631,-0.21704 0.1502,-0.18282 0.24443,-0.41288 0.24443,-0.66611 0,-0.58136 -0.47697,-1.05833 -1.05833,-1.05833 z m 0,0.52917 c 0.29538,0 0.52917,0.23378 0.52917,0.52916 0,0.29539 -0.23379,0.52917 -0.52917,0.52917 -0.29539,0 -0.52917,-0.23378 -0.52917,-0.52917 0,-0.29538 0.23378,-0.52916 0.52917,-0.52916 z" id="path2958" style="color:#000000;font-style:normal;font-variant:normal;font-weight:normal;font-stretch:normal;font-size:medium;line-height:normal;font-family:sans-serif;font-variant-ligatures:normal;font-variant-position:normal;font-variant-caps:normal;font-variant-numeric:normal;font-variant-alternates:normal;font-feature-settings:normal;text-indent:0;text-align:start;text-decoration:none;text-decoration-line:none;text-decoration-style:solid;text-decoration-color:#000000;letter-spacing:normal;word-spacing:normal;text-transform:none;writing-mode:lr-tb;direction:ltr;text-orientation:mixed;dominant-baseline:auto;baseline-shift:baseline;text-anchor:start;white-space:normal;shape-padding:0;clip-rule:nonzero;display:inline;overflow:visible;visibility:visible;opacity:1;isolation:auto;mix-blend-mode:normal;color-interpolation:sRGB;color-interpolation-filters:linearRGB;solid-color:#000000;solid-opacity:1;vector-effect:none;fill:#000000;fill-opacity:1;fill-rule:nonzero;stroke:none;stroke-width:0.5291667;stroke-linecap:butt;stroke-linejoin:round;stroke-miterlimit:4;stroke-dasharray:none;stroke-dashoffset:0;stroke-opacity:1;paint-order:normal;color-rendering:auto;image-rendering:auto;shape-rendering:auto;text-rendering:auto;enable-background:accumulate"/><path d="m 2.64584,284.29998 c 0,0.25296 0.094,0.48285 0.24392,0.66559 -0.16539,0.057 -0.32134,0.12672 -0.45683,0.21704 -0.33885,0.22589 -0.58084,0.56979 -0.58084,0.96945 v 0.82527 c 0.3369,-0.34499 0.80571,-0.56069 1.32292,-0.56069 1.0185,0 1.85208,0.8336 1.85208,1.85209 0,0.09 -0.009,0.17791 -0.0212,0.26458 h 0.28577 c 0.14617,-5.2e-4 0.26515,-0.11841 0.26459,-0.26458 v -2.11667 c 0,-0.39966 -0.24303,-0.74356 -0.58188,-0.96945 -0.13526,-0.0902 -0.2909,-0.15954 -0.45579,-0.21652 0.15007,-0.18279 0.24392,-0.41301 0.24392,-0.66611 0,-0.58137 -0.47697,-1.05834 -1.05833,-1.05834 -0.58136,0 -1.05833,0.47697 -1.05833,1.05834 z m 1.05833,-0.52917 c 0.29539,0 0.52917,0.23378 0.52917,0.52917 0,0.29538 -0.23378,0.52916 -0.52917,0.52916 -0.29538,0 -0.52916,-0.23378 -0.52916,-0.52916 0,-0.29539 0.23378,-0.52917 0.52916,-0.52917 z" id="path2960" style="color:#000000;font-style:normal;font-variant:normal;font-weight:normal;font-stretch:normal;font-size:medium;line-height:normal;font-family:sans-serif;font-variant-ligatures:normal;font-variant-position:normal;font-variant-caps:normal;font-variant-numeric:normal;font-variant-alternates:normal;font-feature-settings:normal;text-indent:0;text-align:start;text-decoration:none;text-decoration-line:none;text-decoration-style:solid;text-decoration-color:#000000;letter-spacing:normal;word-spacing:normal;text-transform:none;writing-mode:lr-tb;direction:ltr;text-orientation:mixed;dominant-baseline:auto;baseline-shift:baseline;text-anchor:start;white-space:normal;shape-padding:0;clip-rule:nonzero;display:inline;overflow:visible;visibility:visible;opacity:1;isolation:auto;mix-blend-mode:normal;color-interpolation:sRGB;color-interpolation-filters:linearRGB;solid-color:#000000;solid-opacity:1;vector-effect:none;fill:#000000;fill-opacity:1;fill-rule:nonzero;stroke:none;stroke-width:0.5291667;stroke-linecap:butt;stroke-linejoin:round;stroke-miterlimit:4;stroke-dasharray:none;stroke-dashoffset:0;stroke-opacity:1;paint-order:normal;color-rendering:auto;image-rendering:auto;shape-rendering:auto;text-rendering:auto;enable-background:accumulate"/><path d="m 12.17083,284.29998 c 0,0.2531 0.0939,0.48332 0.24392,0.66611 -0.16506,0.057 -0.32099,0.12631 -0.4563,0.21652 -0.33885,0.22589 -0.58137,0.56979 -0.58137,0.96945 v 2.11667 c -5.6e-4,0.14693 0.11766,0.26515 0.26459,0.26458 h 0.28577 c -0.0126,-0.0867 -0.0212,-0.17458 -0.0212,-0.26458 0,-1.01848 0.83361,-1.85209 1.85208,-1.85209 0.51723,0 0.98602,0.2157 1.32292,0.56069 v -0.82527 c 0,-0.39966 -0.24303,-0.74356 -0.58188,-0.96945 -0.13526,-0.0902 -0.2909,-0.15954 -0.45578,-0.21652 0.15007,-0.18279 0.24391,-0.41301 0.24391,-0.66611 0,-0.58137 -0.47696,-1.05834 -1.05832,-1.05834 -0.58136,0 -1.05834,0.47697 -1.05834,1.05834 z m 1.05834,-0.52917 c 0.29539,0 0.52916,0.23378 0.52916,0.52917 0,0.29538 -0.23377,0.52916 -0.52916,0.52916 -0.29538,0 -0.52917,-0.23378 -0.52917,-0.52916 0,-0.29539 0.23379,-0.52917 0.52917,-0.52917 z" id="path2962" style="color:#000000;font-style:normal;font-variant:normal;font-weight:normal;font-stretch:normal;font-size:medium;line-height:normal;font-family:sans-serif;font-variant-ligatures:normal;font-variant-position:normal;font-variant-caps:normal;font-variant-numeric:normal;font-variant-alternates:normal;font-feature-settings:normal;text-indent:0;text-align:start;text-decoration:none;text-decoration-line:none;text-decoration-style:solid;text-decoration-color:#000000;letter-spacing:normal;word-spacing:normal;text-transform:none;writing-mode:lr-tb;direction:ltr;text-orientation:mixed;dominant-baseline:auto;baseline-shift:baseline;text-anchor:start;white-space:normal;shape-padding:0;clip-rule:nonzero;display:inline;overflow:visible;visibility:visible;opacity:1;isolation:auto;mix-blend-mode:normal;color-interpolation:sRGB;color-interpolation-filters:linearRGB;solid-color:#000000;solid-opacity:1;vector-effect:none;fill:#000000;fill-opacity:1;fill-rule:nonzero;stroke:none;stroke-width:0.5291667;stroke-linecap:butt;stroke-linejoin:round;stroke-miterlimit:4;stroke-dasharray:none;stroke-dashoffset:0;stroke-opacity:1;paint-order:normal;color-rendering:auto;image-rendering:auto;shape-rendering:auto;text-rendering:auto;enable-background:accumulate"/><path d="m 5.82083,289.32706 a 0.26458335,0.26458335 0 0 1 -0.26459,0.26458 0.26458335,0.26458335 0 0 1 -0.26458,-0.26458 0.26458335,0.26458335 0 0 1 0.26458,-0.26458 0.26458335,0.26458335 0 0 1 0.26459,0.26458 z" id="path2964" style="display:inline;opacity:1;fill:#000000;fill-opacity:1;stroke:none;stroke-width:0.52916676;stroke-linecap:butt;stroke-linejoin:round;stroke-miterlimit:4;stroke-dasharray:none;stroke-dashoffset:0;stroke-opacity:1;paint-order:normal"/><path d="m 11.64166,289.32707 a 0.26458335,0.26458335 0 0 1 -0.26458,0.26458 0.26458335,0.26458335 0 0 1 -0.26458,-0.26458 0.26458335,0.26458335 0 0 1 0.26458,-0.26458 0.26458335,0.26458335 0 0 1 0.26458,0.26458 z" id="path2966" style="display:inline;opacity:1;fill:#000000;fill-opacity:1;stroke:none;stroke-width:0.52916676;stroke-linecap:butt;stroke-linejoin:round;stroke-miterlimit:4;stroke-dasharray:none;stroke-dashoffset:0;stroke-opacity:1;paint-order:normal"/><path d="m 1.85209,293.56039 a 0.26458335,0.26458335 0 0 1 -0.26459,0.26458 0.26458335,0.26458335 0 0 1 -0.26458,-0.26458 0.26458335,0.26458335 0 0 1 0.26458,-0.26458 0.26458335,0.26458335 0 0 1 0.26459,0.26458 z" id="path2992" style="display:inline;opacity:1;fill:#000000;fill-opacity:1;stroke:none;stroke-width:0.52916676;stroke-linecap:butt;stroke-linejoin:round;stroke-miterlimit:4;stroke-dasharray:none;stroke-dashoffset:0;stroke-opacity:1;paint-order:normal"/><path d="m 15.61042,293.56039 a 0.26458335,0.26458335 0 0 1 -0.26459,0.26458 0.26458335,0.26458335 0 0 1 -0.26458,-0.26458 0.26458335,0.26458335 0 0 1 0.26458,-0.26458 0.26458335,0.26458335 0 0 1 0.26459,0.26458 z" id="path2994" style="display:inline;opacity:1;fill:#000000;fill-opacity:1;stroke:none;stroke-width:0.52916676;stroke-linecap:butt;stroke-linejoin:round;stroke-miterlimit:4;stroke-dasharray:none;stroke-dashoffset:0;stroke-opacity:1;paint-order:normal"/><path d="m 5.02709,293.56039 a 0.26458335,0.26458335 0 0 1 -0.26459,0.26458 0.26458335,0.26458335 0 0 1 -0.26458,-0.26458 0.26458335,0.26458335 0 0 1 0.26458,-0.26458 0.26458335,0.26458335 0 0 1 0.26459,0.26458 z" id="path2996" style="display:inline;opacity:1;fill:#000000;fill-opacity:1;stroke:none;stroke-width:0.52916676;stroke-linecap:butt;stroke-linejoin:round;stroke-miterlimit:4;stroke-dasharray:none;stroke-dashoffset:0;stroke-opacity:1;paint-order:normal"/><path d="m 12.43542,293.56039 a 0.26458335,0.26458335 0 0 1 -0.26459,0.26458 0.26458335,0.26458335 0 0 1 -0.26458,-0.26458 0.26458335,0.26458335 0 0 1 0.26458,-0.26458 0.26458335,0.26458335 0 0 1 0.26459,0.26458 z" id="path2998" style="display:inline;opacity:1;fill:#000000;fill-opacity:1;stroke:none;stroke-width:0.52916676;stroke-linecap:butt;stroke-linejoin:round;stroke-miterlimit:4;stroke-dasharray:none;stroke-dashoffset:0;stroke-opacity:1;paint-order:normal"/></g></svg>